<svg xmlns="http://www.w3.org/2000/svg" version="1.1" xmlns:xlink="http://www.w3.org/1999/xlink" xmlns:svgjs="http://svgjs.dev/svgjs" width="1440" height="800" preserveAspectRatio="none" viewBox="0 0 1440 800"><g mask="url(&quot;#SvgjsMask1026&quot;)" fill="none"><rect width="1440" height="800" x="0" y="0" fill="url(&quot;#SvgjsLinearGradient1027&quot;)"></rect><path d="M-94.71 538.2L-94.71 538.2" stroke="#132e65" stroke-width="1.5"></path><path d="M-94.71 538.2L-66.45 677.07" stroke="#132e65" stroke-width="1.5"></path><path d="M-94.71 538.2L98.66 499.44" stroke="#132e65" stroke-width="1.5"></path><path d="M-94.71 538.2L-66.06 804.42" stroke="#132e65" stroke-width="1.5"></path><path d="M-66.45 677.07L-66.45 677.07" stroke="#132e65" stroke-width="1.5"></path><path d="M-66.45 677.07L-66.06 804.42" stroke="#132e65" stroke-width="1.5"></path><path d="M-66.45 677.07L43.07 821.31" stroke="#132e65" stroke-width="1.5"></path><path d="M-66.45 677.07L98.66 499.44" stroke="#132e65" stroke-width="1.5"></path><path d="M-66.45 677.07L227.01 712.46" stroke="#132e65" stroke-width="1.5"></path><path d="M-66.45 677.07L66.05 947.89" stroke="#132e65" stroke-width="1.5"></path><path d="M-66.06 804.42L-66.06 804.42" stroke="#132e65" stroke-width="1.5"></path><path d="M-66.06 804.42L43.07 821.31" stroke="#132e65" stroke-width="1.5"></path><path d="M-66.06 804.42L66.05 947.89" stroke="#132e65" stroke-width="1.5"></path><path d="M-66.06 804.42L-41.44 1006.1" stroke="#132e65" stroke-width="1.5"></path><path d="M-66.06 804.42L193.91 861.74" stroke="#132e65" stroke-width="1.5"></path><path d="M-41.44 1006.1L-41.44 1006.1" stroke="#132e65" stroke-width="1.5"></path><path d="M-41.44 1006.1L66.05 947.89" stroke="#132e65" stroke-width="1.5"></path><path d="M-41.44 1006.1L43.07 821.31" stroke="#132e65" stroke-width="1.5"></path><path d="M-41.44 1006.1L193.91 861.74" stroke="#132e65" stroke-width="1.5"></path><path d="M98.66 499.44L98.66 499.44" stroke="#132e65" stroke-width="1.5"></path><path d="M98.66 499.44L212.19 504.78" stroke="#132e65" stroke-width="1.5"></path><path d="M98.66 499.44L227.01 712.46" stroke="#132e65" stroke-width="1.5"></path><path d="M98.66 499.44L367.3 531.43" stroke="#132e65" stroke-width="1.5"></path><path d="M98.66 499.44L345.65 662.89" stroke="#132e65" stroke-width="1.5"></path><path d="M43.07 821.31L43.07 821.31" stroke="#132e65" stroke-width="1.5"></path><path d="M43.07 821.31L66.05 947.89" stroke="#132e65" stroke-width="1.5"></path><path d="M43.07 821.31L193.91 861.74" stroke="#132e65" stroke-width="1.5"></path><path d="M43.07 821.31L227.01 712.46" stroke="#132e65" stroke-width="1.5"></path><path d="M66.05 947.89L66.05 947.89" stroke="#132e65" stroke-width="1.5"></path><path d="M212.19 504.78L212.19 504.78" stroke="#132e65" stroke-width="1.5"></path><path d="M212.19 504.78L367.3 531.43" stroke="#132e65" stroke-width="1.5"></path><path d="M212.19 504.78L345.65 662.89" stroke="#132e65" stroke-width="1.5"></path><path d="M212.19 504.78L227.01 712.46" stroke="#132e65" stroke-width="1.5"></path><path d="M227.01 712.46L227.01 712.46" stroke="#132e65" stroke-width="1.5"></path><path d="M227.01 712.46L345.65 662.89" stroke="#132e65" stroke-width="1.5"></path><path d="M227.01 712.46L193.91 861.74" stroke="#132e65" stroke-width="1.5"></path><path d="M193.91 861.74L193.91 861.74" stroke="#132e65" stroke-width="1.5"></path><path d="M193.91 861.74L261.5 978.66" stroke="#132e65" stroke-width="1.5"></path><path d="M193.91 861.74L66.05 947.89" stroke="#132e65" stroke-width="1.5"></path><path d="M193.91 861.74L358.15 1007.51" stroke="#132e65" stroke-width="1.5"></path><path d="M261.5 978.66L261.5 978.66" stroke="#132e65" stroke-width="1.5"></path><path d="M261.5 978.66L358.15 1007.51" stroke="#132e65" stroke-width="1.5"></path><path d="M261.5 978.66L66.05 947.89" stroke="#132e65" stroke-width="1.5"></path><path d="M367.3 531.43L367.3 531.43" stroke="#132e65" stroke-width="1.5"></path><path d="M367.3 531.43L345.65 662.89" stroke="#132e65" stroke-width="1.5"></path><path d="M367.3 531.43L513.31 556.98" stroke="#132e65" stroke-width="1.5"></path><path d="M367.3 531.43L227.01 712.46" stroke="#132e65" stroke-width="1.5"></path><path d="M367.3 531.43L560.63 373.96" stroke="#132e65" stroke-width="1.5"></path><path d="M345.65 662.89L345.65 662.89" stroke="#132e65" stroke-width="1.5"></path><path d="M345.65 662.89L513.31 556.98" stroke="#132e65" stroke-width="1.5"></path><path d="M358.15 1007.51L358.15 1007.51" stroke="#132e65" stroke-width="1.5"></path><path d="M358.15 1007.51L527.43 959.3" stroke="#132e65" stroke-width="1.5"></path><path d="M560.63 373.96L560.63 373.96" stroke="#132e65" stroke-width="1.5"></path><path d="M560.63 373.96L711 350.55" stroke="#132e65" stroke-width="1.5"></path><path d="M560.63 373.96L640.41 522.14" stroke="#132e65" stroke-width="1.5"></path><path d="M560.63 373.96L513.31 556.98" stroke="#132e65" stroke-width="1.5"></path><path d="M513.31 556.98L513.31 556.98" stroke="#132e65" stroke-width="1.5"></path><path d="M513.31 556.98L640.41 522.14" stroke="#132e65" stroke-width="1.5"></path><path d="M513.31 556.98L690.13 710.73" stroke="#132e65" stroke-width="1.5"></path><path d="M513.31 556.98L552.14 821.53" stroke="#132e65" stroke-width="1.5"></path><path d="M552.14 821.53L552.14 821.53" stroke="#132e65" stroke-width="1.5"></path><path d="M552.14 821.53L642.13 794.91" stroke="#132e65" stroke-width="1.5"></path><path d="M552.14 821.53L527.43 959.3" stroke="#132e65" stroke-width="1.5"></path><path d="M552.14 821.53L690.13 710.73" stroke="#132e65" stroke-width="1.5"></path><path d="M552.14 821.53L345.65 662.89" stroke="#132e65" stroke-width="1.5"></path><path d="M552.14 821.53L358.15 1007.51" stroke="#132e65" stroke-width="1.5"></path><path d="M527.43 959.3L527.43 959.3" stroke="#132e65" stroke-width="1.5"></path><path d="M527.43 959.3L642.13 794.91" stroke="#132e65" stroke-width="1.5"></path><path d="M527.43 959.3L261.5 978.66" stroke="#132e65" stroke-width="1.5"></path><path d="M527.43 959.3L811.61 986.23" stroke="#132e65" stroke-width="1.5"></path><path d="M711 350.55L711 350.55" stroke="#132e65" stroke-width="1.5"></path><path d="M711 350.55L806.16 244.11" stroke="#132e65" stroke-width="1.5"></path><path d="M711 350.55L640.41 522.14" stroke="#132e65" stroke-width="1.5"></path><path d="M640.41 522.14L640.41 522.14" stroke="#132e65" stroke-width="1.5"></path><path d="M640.41 522.14L817.23 508.05" stroke="#132e65" stroke-width="1.5"></path><path d="M640.41 522.14L690.13 710.73" stroke="#132e65" stroke-width="1.5"></path><path d="M640.41 522.14L802.25 683.57" stroke="#132e65" stroke-width="1.5"></path><path d="M690.13 710.73L690.13 710.73" stroke="#132e65" stroke-width="1.5"></path><path d="M690.13 710.73L642.13 794.91" stroke="#132e65" stroke-width="1.5"></path><path d="M690.13 710.73L802.25 683.57" stroke="#132e65" stroke-width="1.5"></path><path d="M642.13 794.91L642.13 794.91" stroke="#132e65" stroke-width="1.5"></path><path d="M642.13 794.91L802.25 683.57" stroke="#132e65" stroke-width="1.5"></path><path d="M806.16 244.11L806.16 244.11" stroke="#132e65" stroke-width="1.5"></path><path d="M806.16 244.11L960.03 211.51" stroke="#132e65" stroke-width="1.5"></path><path d="M806.16 244.11L964.77 345.37" stroke="#132e65" stroke-width="1.5"></path><path d="M806.16 244.11L817.23 508.05" stroke="#132e65" stroke-width="1.5"></path><path d="M806.16 244.11L560.63 373.96" stroke="#132e65" stroke-width="1.5"></path><path d="M817.23 508.05L817.23 508.05" stroke="#132e65" stroke-width="1.5"></path><path d="M817.23 508.05L802.25 683.57" stroke="#132e65" stroke-width="1.5"></path><path d="M802.25 683.57L802.25 683.57" stroke="#132e65" stroke-width="1.5"></path><path d="M802.25 683.57L972.14 707.01" stroke="#132e65" stroke-width="1.5"></path><path d="M811.61 986.23L811.61 986.23" stroke="#132e65" stroke-width="1.5"></path><path d="M811.61 986.23L997.84 1010.05" stroke="#132e65" stroke-width="1.5"></path><path d="M811.61 986.23L953.99 845.55" stroke="#132e65" stroke-width="1.5"></path><path d="M811.61 986.23L642.13 794.91" stroke="#132e65" stroke-width="1.5"></path><path d="M999.32 -53.57L999.32 -53.57" stroke="#132e65" stroke-width="1.5"></path><path d="M999.32 -53.57L1088.83 -58.21" stroke="#132e65" stroke-width="1.5"></path><path d="M999.32 -53.57L1003.56 46.42" stroke="#132e65" stroke-width="1.5"></path><path d="M999.32 -53.57L1090.31 69.56" stroke="#132e65" stroke-width="1.5"></path><path d="M1003.56 46.42L1003.56 46.42" stroke="#132e65" stroke-width="1.5"></path><path d="M1003.56 46.42L1090.31 69.56" stroke="#132e65" stroke-width="1.5"></path><path d="M1003.56 46.42L1088.83 -58.21" stroke="#132e65" stroke-width="1.5"></path><path d="M1003.56 46.42L960.03 211.51" stroke="#132e65" stroke-width="1.5"></path><path d="M960.03 211.51L960.03 211.51" stroke="#132e65" stroke-width="1.5"></path><path d="M960.03 211.51L1089.5 232.22" stroke="#132e65" stroke-width="1.5"></path><path d="M960.03 211.51L964.77 345.37" stroke="#132e65" stroke-width="1.5"></path><path d="M964.77 345.37L964.77 345.37" stroke="#132e65" stroke-width="1.5"></path><path d="M964.77 345.37L1089.5 232.22" stroke="#132e65" stroke-width="1.5"></path><path d="M972.14 707.01L972.14 707.01" stroke="#132e65" stroke-width="1.5"></path><path d="M972.14 707.01L953.99 845.55" stroke="#132e65" stroke-width="1.5"></path><path d="M972.14 707.01L1112.91 706.52" stroke="#132e65" stroke-width="1.5"></path><path d="M953.99 845.55L953.99 845.55" stroke="#132e65" stroke-width="1.5"></path><path d="M953.99 845.55L997.84 1010.05" stroke="#132e65" stroke-width="1.5"></path><path d="M997.84 1010.05L997.84 1010.05" stroke="#132e65" stroke-width="1.5"></path><path d="M997.84 1010.05L1090.39 988.09" stroke="#132e65" stroke-width="1.5"></path><path d="M997.84 1010.05L1285.37 982.33" stroke="#132e65" stroke-width="1.5"></path><path d="M997.84 1010.05L1238.23 834.93" stroke="#132e65" stroke-width="1.5"></path><path d="M997.84 1010.05L972.14 707.01" stroke="#132e65" stroke-width="1.5"></path><path d="M1088.83 -58.21L1088.83 -58.21" stroke="#132e65" stroke-width="1.5"></path><path d="M1088.83 -58.21L1090.31 69.56" stroke="#132e65" stroke-width="1.5"></path><path d="M1088.83 -58.21L1255.48 -49.33" stroke="#132e65" stroke-width="1.5"></path><path d="M1088.83 -58.21L1243.85 85.18" stroke="#132e65" stroke-width="1.5"></path><path d="M1088.83 -58.21L1089.5 232.22" stroke="#132e65" stroke-width="1.5"></path><path d="M1090.31 69.56L1090.31 69.56" stroke="#132e65" stroke-width="1.5"></path><path d="M1090.31 69.56L1243.85 85.18" stroke="#132e65" stroke-width="1.5"></path><path d="M1090.31 69.56L1089.5 232.22" stroke="#132e65" stroke-width="1.5"></path><path d="M1090.31 69.56L960.03 211.51" stroke="#132e65" stroke-width="1.5"></path><path d="M1089.5 232.22L1089.5 232.22" stroke="#132e65" stroke-width="1.5"></path><path d="M1089.5 232.22L1154.15 356.57" stroke="#132e65" stroke-width="1.5"></path><path d="M1154.15 356.57L1154.15 356.57" stroke="#132e65" stroke-width="1.5"></path><path d="M1154.15 356.57L1122.06 491.06" stroke="#132e65" stroke-width="1.5"></path><path d="M1154.15 356.57L1311.64 361.21" stroke="#132e65" stroke-width="1.5"></path><path d="M1154.15 356.57L964.77 345.37" stroke="#132e65" stroke-width="1.5"></path><path d="M1154.15 356.57L1311.11 505.95" stroke="#132e65" stroke-width="1.5"></path><path d="M1154.15 356.57L960.03 211.51" stroke="#132e65" stroke-width="1.5"></path><path d="M1122.06 491.06L1122.06 491.06" stroke="#132e65" stroke-width="1.5"></path><path d="M1122.06 491.06L1311.11 505.95" stroke="#132e65" stroke-width="1.5"></path><path d="M1122.06 491.06L964.77 345.37" stroke="#132e65" stroke-width="1.5"></path><path d="M1122.06 491.06L1112.91 706.52" stroke="#132e65" stroke-width="1.5"></path><path d="M1122.06 491.06L1246.86 682.33" stroke="#132e65" stroke-width="1.5"></path><path d="M1112.91 706.52L1112.91 706.52" stroke="#132e65" stroke-width="1.5"></path><path d="M1112.91 706.52L1246.86 682.33" stroke="#132e65" stroke-width="1.5"></path><path d="M1112.91 706.52L1238.23 834.93" stroke="#132e65" stroke-width="1.5"></path><path d="M1112.91 706.52L953.99 845.55" stroke="#132e65" stroke-width="1.5"></path><path d="M1112.91 706.52L1311.11 505.95" stroke="#132e65" stroke-width="1.5"></path><path d="M1090.39 988.09L1090.39 988.09" stroke="#132e65" stroke-width="1.5"></path><path d="M1090.39 988.09L1285.37 982.33" stroke="#132e65" stroke-width="1.5"></path><path d="M1090.39 988.09L953.99 845.55" stroke="#132e65" stroke-width="1.5"></path><path d="M1255.48 -49.33L1255.48 -49.33" stroke="#132e65" stroke-width="1.5"></path><path d="M1255.48 -49.33L1243.85 85.18" stroke="#132e65" stroke-width="1.5"></path><path d="M1255.48 -49.33L1435.07 -109.48" stroke="#132e65" stroke-width="1.5"></path><path d="M1255.48 -49.33L1090.31 69.56" stroke="#132e65" stroke-width="1.5"></path><path d="M1255.48 -49.33L1445.8 58.94" stroke="#132e65" stroke-width="1.5"></path><path d="M1255.48 -49.33L999.32 -53.57" stroke="#132e65" stroke-width="1.5"></path><path d="M1243.85 85.18L1243.85 85.18" stroke="#132e65" stroke-width="1.5"></path><path d="M1243.85 85.18L1445.8 58.94" stroke="#132e65" stroke-width="1.5"></path><path d="M1311.64 361.21L1311.64 361.21" stroke="#132e65" stroke-width="1.5"></path><path d="M1311.64 361.21L1311.11 505.95" stroke="#132e65" stroke-width="1.5"></path><path d="M1311.11 505.95L1311.11 505.95" stroke="#132e65" stroke-width="1.5"></path><path d="M1311.11 505.95L1399.97 537.19" stroke="#132e65" stroke-width="1.5"></path><path d="M1246.86 682.33L1246.86 682.33" stroke="#132e65" stroke-width="1.5"></path><path d="M1246.86 682.33L1238.23 834.93" stroke="#132e65" stroke-width="1.5"></path><path d="M1246.86 682.33L1412.42 691.15" stroke="#132e65" stroke-width="1.5"></path><path d="M1246.86 682.33L1311.11 505.95" stroke="#132e65" stroke-width="1.5"></path><path d="M1246.86 682.33L1399.97 537.19" stroke="#132e65" stroke-width="1.5"></path><path d="M1238.23 834.93L1238.23 834.93" stroke="#132e65" stroke-width="1.5"></path><path d="M1238.23 834.93L1285.37 982.33" stroke="#132e65" stroke-width="1.5"></path><path d="M1238.23 834.93L1419.29 842.65" stroke="#132e65" stroke-width="1.5"></path><path d="M1238.23 834.93L1090.39 988.09" stroke="#132e65" stroke-width="1.5"></path><path d="M1285.37 982.33L1285.37 982.33" stroke="#132e65" stroke-width="1.5"></path><path d="M1285.37 982.33L1451.59 1003.61" stroke="#132e65" stroke-width="1.5"></path><path d="M1285.37 982.33L1419.29 842.65" stroke="#132e65" stroke-width="1.5"></path><path d="M1285.37 982.33L1575.84 949.84" stroke="#132e65" stroke-width="1.5"></path><path d="M1435.07 -109.48L1435.07 -109.48" stroke="#132e65" stroke-width="1.5"></path><path d="M1435.07 -109.48L1573.79 -100.32" stroke="#132e65" stroke-width="1.5"></path><path d="M1435.07 -109.48L1445.8 58.94" stroke="#132e65" stroke-width="1.5"></path><path d="M1445.8 58.94L1445.8 58.94" stroke="#132e65" stroke-width="1.5"></path><path d="M1445.8 58.94L1559.67 50.19" stroke="#132e65" stroke-width="1.5"></path><path d="M1460.67 248.69L1460.67 248.69" stroke="#132e65" stroke-width="1.5"></path><path d="M1460.67 248.69L1591.53 226.58" stroke="#132e65" stroke-width="1.5"></path><path d="M1460.67 248.69L1578.9 338.72" stroke="#132e65" stroke-width="1.5"></path><path d="M1399.97 537.19L1399.97 537.19" stroke="#132e65" stroke-width="1.5"></path><path d="M1399.97 537.19L1412.42 691.15" stroke="#132e65" stroke-width="1.5"></path><path d="M1399.97 537.19L1311.64 361.21" stroke="#132e65" stroke-width="1.5"></path><path d="M1399.97 537.19L1598.3 531.79" stroke="#132e65" stroke-width="1.5"></path><path d="M1412.42 691.15L1412.42 691.15" stroke="#132e65" stroke-width="1.5"></path><path d="M1412.42 691.15L1419.29 842.65" stroke="#132e65" stroke-width="1.5"></path><path d="M1419.29 842.65L1419.29 842.65" stroke="#132e65" stroke-width="1.5"></path><path d="M1419.29 842.65L1544.28 836.45" stroke="#132e65" stroke-width="1.5"></path><path d="M1419.29 842.65L1451.59 1003.61" stroke="#132e65" stroke-width="1.5"></path><path d="M1419.29 842.65L1575.84 949.84" stroke="#132e65" stroke-width="1.5"></path><path d="M1451.59 1003.61L1451.59 1003.61" stroke="#132e65" stroke-width="1.5"></path><path d="M1451.59 1003.61L1575.84 949.84" stroke="#132e65" stroke-width="1.5"></path><path d="M1451.59 1003.61L1544.28 836.45" stroke="#132e65" stroke-width="1.5"></path><path d="M1573.79 -100.32L1573.79 -100.32" stroke="#132e65" stroke-width="1.5"></path><path d="M1573.79 -100.32L1559.67 50.19" stroke="#132e65" stroke-width="1.5"></path><path d="M1573.79 -100.32L1445.8 58.94" stroke="#132e65" stroke-width="1.5"></path><path d="M1559.67 50.19L1559.67 50.19" stroke="#132e65" stroke-width="1.5"></path><path d="M1559.67 50.19L1591.53 226.58" stroke="#132e65" stroke-width="1.5"></path><path d="M1591.53 226.58L1591.53 226.58" stroke="#132e65" stroke-width="1.5"></path><path d="M1591.53 226.58L1578.9 338.72" stroke="#132e65" stroke-width="1.5"></path><path d="M1591.53 226.58L1445.8 58.94" stroke="#132e65" stroke-width="1.5"></path><path d="M1591.53 226.58L1598.3 531.79" stroke="#132e65" stroke-width="1.5"></path><path d="M1578.9 338.72L1578.9 338.72" stroke="#132e65" stroke-width="1.5"></path><path d="M1578.9 338.72L1598.3 531.79" stroke="#132e65" stroke-width="1.5"></path><path d="M1578.9 338.72L1399.97 537.19" stroke="#132e65" stroke-width="1.5"></path><path d="M1578.9 338.72L1311.64 361.21" stroke="#132e65" stroke-width="1.5"></path><path d="M1598.3 531.79L1598.3 531.79" stroke="#132e65" stroke-width="1.5"></path><path d="M1598.3 531.79L1602.86 662.15" stroke="#132e65" stroke-width="1.5"></path><path d="M1598.3 531.79L1412.42 691.15" stroke="#132e65" stroke-width="1.5"></path><path d="M1598.3 531.79L1311.11 505.95" stroke="#132e65" stroke-width="1.5"></path><path d="M1602.86 662.15L1602.86 662.15" stroke="#132e65" stroke-width="1.5"></path><path d="M1602.86 662.15L1544.28 836.45" stroke="#132e65" stroke-width="1.5"></path><path d="M1602.86 662.15L1412.42 691.15" stroke="#132e65" stroke-width="1.5"></path><path d="M1602.86 662.15L1399.97 537.19" stroke="#132e65" stroke-width="1.5"></path><path d="M1602.86 662.15L1419.29 842.65" stroke="#132e65" stroke-width="1.5"></path><path d="M1602.86 662.15L1575.84 949.84" stroke="#132e65" stroke-width="1.5"></path><path d="M1544.28 836.45L1544.28 836.45" stroke="#132e65" stroke-width="1.5"></path><path d="M1544.28 836.45L1575.84 949.84" stroke="#132e65" stroke-width="1.5"></path><path d="M1575.84 949.84L1575.84 949.84" stroke="#132e65" stroke-width="1.5"></path><circle r="5" cx="-94.71" cy="538.2" fill="#132e65"></circle><circle r="5" cx="-66.45" cy="677.07" fill="#132e65"></circle><circle r="5" cx="-66.06" cy="804.42" fill="#132e65"></circle><circle r="5" cx="-41.44" cy="1006.1" fill="#132e65"></circle><circle r="5" cx="98.66" cy="499.44" fill="#132e65"></circle><circle r="5" cx="43.07" cy="821.31" fill="#132e65"></circle><circle r="5" cx="66.05" cy="947.89" fill="#132e65"></circle><circle r="5" cx="212.19" cy="504.78" fill="#132e65"></circle><circle r="5" cx="227.01" cy="712.46" fill="#132e65"></circle><circle r="5" cx="193.91" cy="861.74" fill="#132e65"></circle><circle r="5" cx="261.5" cy="978.66" fill="#132e65"></circle><circle r="5" cx="367.3" cy="531.43" fill="#132e65"></circle><circle r="5" cx="345.65" cy="662.89" fill="#132e65"></circle><circle r="5" cx="358.15" cy="1007.51" fill="#132e65"></circle><circle r="5" cx="560.63" cy="373.96" fill="#132e65"></circle><circle r="5" cx="513.31" cy="556.98" fill="#132e65"></circle><circle r="5" cx="552.14" cy="821.53" fill="#132e65"></circle><circle r="5" cx="527.43" cy="959.3" fill="#132e65"></circle><circle r="5" cx="711" cy="350.55" fill="#132e65"></circle><circle r="5" cx="640.41" cy="522.14" fill="#132e65"></circle><circle r="5" cx="690.13" cy="710.73" fill="#132e65"></circle><circle r="5" cx="642.13" cy="794.91" fill="#132e65"></circle><circle r="5" cx="806.16" cy="244.11" fill="#132e65"></circle><circle r="5" cx="817.23" cy="508.05" fill="#132e65"></circle><circle r="5" cx="802.25" cy="683.57" fill="#132e65"></circle><circle r="5" cx="811.61" cy="986.23" fill="#132e65"></circle><circle r="5" cx="999.32" cy="-53.57" fill="#132e65"></circle><circle r="5" cx="1003.56" cy="46.42" fill="#132e65"></circle><circle r="5" cx="960.03" cy="211.51" fill="#132e65"></circle><circle r="5" cx="964.77" cy="345.37" fill="#132e65"></circle><circle r="5" cx="972.14" cy="707.01" fill="#132e65"></circle><circle r="5" cx="953.99" cy="845.55" fill="#132e65"></circle><circle r="5" cx="997.84" cy="1010.05" fill="#132e65"></circle><circle r="5" cx="1088.83" cy="-58.21" fill="#132e65"></circle><circle r="5" cx="1090.31" cy="69.56" fill="#132e65"></circle><circle r="5" cx="1089.5" cy="232.22" fill="#132e65"></circle><circle r="5" cx="1154.15" cy="356.57" fill="#132e65"></circle><circle r="5" cx="1122.06" cy="491.06" fill="#132e65"></circle><circle r="5" cx="1112.91" cy="706.52" fill="#132e65"></circle><circle r="5" cx="1090.39" cy="988.09" fill="#132e65"></circle><circle r="5" cx="1255.48" cy="-49.33" fill="#132e65"></circle><circle r="5" cx="1243.85" cy="85.18" fill="#132e65"></circle><circle r="5" cx="1311.64" cy="361.21" fill="#132e65"></circle><circle r="5" cx="1311.11" cy="505.95" fill="#132e65"></circle><circle r="5" cx="1246.86" cy="682.33" fill="#132e65"></circle><circle r="5" cx="1238.23" cy="834.93" fill="#132e65"></circle><circle r="5" cx="1285.37" cy="982.33" fill="#132e65"></circle><circle r="5" cx="1435.07" cy="-109.48" fill="#132e65"></circle><circle r="5" cx="1445.8" cy="58.94" fill="#132e65"></circle><circle r="5" cx="1460.67" cy="248.69" fill="#132e65"></circle><circle r="5" cx="1399.97" cy="537.19" fill="#132e65"></circle><circle r="5" cx="1412.42" cy="691.15" fill="#132e65"></circle><circle r="5" cx="1419.29" cy="842.65" fill="#132e65"></circle><circle r="5" cx="1451.59" cy="1003.61" fill="#132e65"></circle><circle r="5" cx="1573.79" cy="-100.32" fill="#132e65"></circle><circle r="5" cx="1559.67" cy="50.19" fill="#132e65"></circle><circle r="5" cx="1591.53" cy="226.58" fill="#132e65"></circle><circle r="5" cx="1578.9" cy="338.72" fill="#132e65"></circle><circle r="5" cx="1598.3" cy="531.79" fill="#132e65"></circle><circle r="5" cx="1602.86" cy="662.15" fill="#132e65"></circle><circle r="5" cx="1544.28" cy="836.45" fill="#132e65"></circle><circle r="5" cx="1575.84" cy="949.84" fill="#132e65"></circle><path d="M50 847.19L50 847.19" stroke="hsl(228.5, 77.2%, 51.5%)" stroke-width="1.5"></path><path d="M50 847.19L-38.57 861.73" stroke="hsl(228.5, 77.2%, 51.5%)" stroke-width="1.5"></path><path d="M50 847.19L106.06 955.83" stroke="hsl(228.5, 77.2%, 51.5%)" stroke-width="1.5"></path><path d="M50 847.19L-66.3 960.69" stroke="hsl(228.5, 77.2%, 51.5%)" stroke-width="1.5"></path><path d="M50 847.19L79.84 666.6" stroke="hsl(228.5, 77.2%, 51.5%)" stroke-width="1.5"></path><path d="M373.67 813.31L373.67 813.31" stroke="hsl(228.5, 77.2%, 51.5%)" stroke-width="1.5"></path><path d="M373.67 813.31L252.74 792.19" stroke="hsl(228.5, 77.2%, 51.5%)" stroke-width="1.5"></path><path d="M373.67 813.31L408.46 645.24" stroke="hsl(228.5, 77.2%, 51.5%)" stroke-width="1.5"></path><path d="M373.67 813.31L541.84 851.79" stroke="hsl(228.5, 77.2%, 51.5%)" stroke-width="1.5"></path><path d="M373.67 813.31L391.09 986.63" stroke="hsl(228.5, 77.2%, 51.5%)" stroke-width="1.5"></path><path d="M391.09 986.63L391.09 986.63" stroke="hsl(228.5, 77.2%, 51.5%)" stroke-width="1.5"></path><path d="M391.09 986.63L252.75 1004.17" stroke="hsl(228.5, 77.2%, 51.5%)" stroke-width="1.5"></path><path d="M391.09 986.63L549.69 989.91" stroke="hsl(228.5, 77.2%, 51.5%)" stroke-width="1.5"></path><path d="M391.09 986.63L541.84 851.79" stroke="hsl(228.5, 77.2%, 51.5%)" stroke-width="1.5"></path><path d="M677.42 957.51L677.42 957.51" stroke="hsl(228.5, 77.2%, 51.5%)" stroke-width="1.5"></path><path d="M677.42 957.51L672.62 835" stroke="hsl(228.5, 77.2%, 51.5%)" stroke-width="1.5"></path><path d="M677.42 957.51L549.69 989.91" stroke="hsl(228.5, 77.2%, 51.5%)" stroke-width="1.5"></path><path d="M677.42 957.51L541.84 851.79" stroke="hsl(228.5, 77.2%, 51.5%)" stroke-width="1.5"></path><path d="M677.42 957.51L859.5 986.03" stroke="hsl(228.5, 77.2%, 51.5%)" stroke-width="1.5"></path><path d="M677.42 957.51L828.96 821.03" stroke="hsl(228.5, 77.2%, 51.5%)" stroke-width="1.5"></path><path d="M961.68 408.63L961.68 408.63" stroke="hsl(228.5, 77.2%, 51.5%)" stroke-width="1.5"></path><path d="M961.68 408.63L1001.04 506.09" stroke="hsl(228.5, 77.2%, 51.5%)" stroke-width="1.5"></path><path d="M961.68 408.63L1138.84 392.92" stroke="hsl(228.5, 77.2%, 51.5%)" stroke-width="1.5"></path><path d="M961.68 408.63L1158.43 494.93" stroke="hsl(228.5, 77.2%, 51.5%)" stroke-width="1.5"></path><path d="M961.68 408.63L1139.35 248.92" stroke="hsl(228.5, 77.2%, 51.5%)" stroke-width="1.5"></path><path d="M961.68 408.63L837.29 661.23" stroke="hsl(228.5, 77.2%, 51.5%)" stroke-width="1.5"></path><path d="M966.87 970.96L966.87 970.96" stroke="hsl(228.5, 77.2%, 51.5%)" stroke-width="1.5"></path><path d="M966.87 970.96L859.5 986.03" stroke="hsl(228.5, 77.2%, 51.5%)" stroke-width="1.5"></path><path d="M966.87 970.96L978.54 852.65" stroke="hsl(228.5, 77.2%, 51.5%)" stroke-width="1.5"></path><path d="M966.87 970.96L1145.27 979.64" stroke="hsl(228.5, 77.2%, 51.5%)" stroke-width="1.5"></path><path d="M966.87 970.96L1121.6 849.35" stroke="hsl(228.5, 77.2%, 51.5%)" stroke-width="1.5"></path><path d="M966.87 970.96L828.96 821.03" stroke="hsl(228.5, 77.2%, 51.5%)" stroke-width="1.5"></path><path d="M966.87 970.96L1008.54 704.97" stroke="hsl(228.5, 77.2%, 51.5%)" stroke-width="1.5"></path><path d="M1158.43 494.93L1158.43 494.93" stroke="hsl(228.5, 77.2%, 51.5%)" stroke-width="1.5"></path><path d="M1158.43 494.93L1239.02 545.48" stroke="hsl(228.5, 77.2%, 51.5%)" stroke-width="1.5"></path><path d="M1158.43 494.93L1138.84 392.92" stroke="hsl(228.5, 77.2%, 51.5%)" stroke-width="1.5"></path><path d="M1158.43 494.93L1001.04 506.09" stroke="hsl(228.5, 77.2%, 51.5%)" stroke-width="1.5"></path><path d="M1158.43 494.93L1289.35 345.53" stroke="hsl(228.5, 77.2%, 51.5%)" stroke-width="1.5"></path><path d="M1158.43 494.93L1301.54 658.24" stroke="hsl(228.5, 77.2%, 51.5%)" stroke-width="1.5"></path><path d="M1121.6 849.35L1121.6 849.35" stroke="hsl(228.5, 77.2%, 51.5%)" stroke-width="1.5"></path><path d="M1121.6 849.35L1145.27 979.64" stroke="hsl(228.5, 77.2%, 51.5%)" stroke-width="1.5"></path><path d="M1121.6 849.35L978.54 852.65" stroke="hsl(228.5, 77.2%, 51.5%)" stroke-width="1.5"></path><path d="M1121.6 849.35L1091.56 708.97" stroke="hsl(228.5, 77.2%, 51.5%)" stroke-width="1.5"></path><path d="M1121.6 849.35L1008.54 704.97" stroke="hsl(228.5, 77.2%, 51.5%)" stroke-width="1.5"></path><path d="M1121.6 849.35L1272.94 965.64" stroke="hsl(228.5, 77.2%, 51.5%)" stroke-width="1.5"></path><path d="M1289.35 345.53L1289.35 345.53" stroke="hsl(228.5, 77.2%, 51.5%)" stroke-width="1.5"></path><path d="M1289.35 345.53L1243.31 228.44" stroke="hsl(228.5, 77.2%, 51.5%)" stroke-width="1.5"></path><path d="M1289.35 345.53L1428.36 401.43" stroke="hsl(228.5, 77.2%, 51.5%)" stroke-width="1.5"></path><path d="M1239.02 545.48L1239.02 545.48" stroke="hsl(228.5, 77.2%, 51.5%)" stroke-width="1.5"></path><path d="M1239.02 545.48L1301.54 658.24" stroke="hsl(228.5, 77.2%, 51.5%)" stroke-width="1.5"></path><path d="M1239.02 545.48L1138.84 392.92" stroke="hsl(228.5, 77.2%, 51.5%)" stroke-width="1.5"></path><path d="M1239.02 545.48L1422.67 493.79" stroke="hsl(228.5, 77.2%, 51.5%)" stroke-width="1.5"></path><path d="M1239.02 545.48L1403.84 644.15" stroke="hsl(228.5, 77.2%, 51.5%)" stroke-width="1.5"></path><path d="M1239.02 545.48L1289.35 345.53" stroke="hsl(228.5, 77.2%, 51.5%)" stroke-width="1.5"></path><path d="M1301.54 658.24L1301.54 658.24" stroke="hsl(228.5, 77.2%, 51.5%)" stroke-width="1.5"></path><path d="M1301.54 658.24L1403.84 644.15" stroke="hsl(228.5, 77.2%, 51.5%)" stroke-width="1.5"></path><path d="M1301.54 658.24L1422.67 493.79" stroke="hsl(228.5, 77.2%, 51.5%)" stroke-width="1.5"></path><path d="M1435.3 206.27L1435.3 206.27" stroke="hsl(228.5, 77.2%, 51.5%)" stroke-width="1.5"></path><path d="M1435.3 206.27L1458.63 89.49" stroke="hsl(228.5, 77.2%, 51.5%)" stroke-width="1.5"></path><path d="M1435.3 206.27L1573.89 204.11" stroke="hsl(228.5, 77.2%, 51.5%)" stroke-width="1.5"></path><path d="M1435.3 206.27L1243.31 228.44" stroke="hsl(228.5, 77.2%, 51.5%)" stroke-width="1.5"></path><path d="M1435.3 206.27L1428.36 401.43" stroke="hsl(228.5, 77.2%, 51.5%)" stroke-width="1.5"></path><path d="M1403.84 644.15L1403.84 644.15" stroke="hsl(228.5, 77.2%, 51.5%)" stroke-width="1.5"></path><path d="M1403.84 644.15L1422.67 493.79" stroke="hsl(228.5, 77.2%, 51.5%)" stroke-width="1.5"></path><path d="M1403.84 644.15L1577.04 561.38" stroke="hsl(228.5, 77.2%, 51.5%)" stroke-width="1.5"></path><path d="M1577.04 561.38L1577.04 561.38" stroke="hsl(228.5, 77.2%, 51.5%)" stroke-width="1.5"></path><path d="M1577.04 561.38L1599.55 654.23" stroke="hsl(228.5, 77.2%, 51.5%)" stroke-width="1.5"></path><path d="M1577.04 561.38L1611.48 402.55" stroke="hsl(228.5, 77.2%, 51.5%)" stroke-width="1.5"></path><path d="M1577.04 561.38L1422.67 493.79" stroke="hsl(228.5, 77.2%, 51.5%)" stroke-width="1.5"></path><path d="M1577.04 561.38L1428.36 401.43" stroke="hsl(228.5, 77.2%, 51.5%)" stroke-width="1.5"></path><path d="M1568.01 971.57L1568.01 971.57" stroke="hsl(228.5, 77.2%, 51.5%)" stroke-width="1.5"></path><path d="M1568.01 971.57L1434.39 941.68" stroke="hsl(228.5, 77.2%, 51.5%)" stroke-width="1.5"></path><path d="M1568.01 971.57L1544.67 809.89" stroke="hsl(228.5, 77.2%, 51.5%)" stroke-width="1.5"></path><path d="M1568.01 971.57L1272.94 965.64" stroke="hsl(228.5, 77.2%, 51.5%)" stroke-width="1.5"></path><path d="M1568.01 971.57L1599.55 654.23" stroke="hsl(228.5, 77.2%, 51.5%)" stroke-width="1.5"></path><path d="M1568.01 971.57L1403.84 644.15" stroke="hsl(228.5, 77.2%, 51.5%)" stroke-width="1.5"></path><path d="M-81.86 700.12L-81.86 700.12" stroke="hsl(228.5, 77.2%, 51.5%)" stroke-width="1.5"></path><path d="M-81.86 700.12L79.84 666.6" stroke="hsl(228.5, 77.2%, 51.5%)" stroke-width="1.5"></path><path d="M-81.86 700.12L-38.57 861.73" stroke="hsl(228.5, 77.2%, 51.5%)" stroke-width="1.5"></path><path d="M-38.57 861.73L-38.57 861.73" stroke="hsl(228.5, 77.2%, 51.5%)" stroke-width="1.5"></path><path d="M-38.57 861.73L-66.3 960.69" stroke="hsl(228.5, 77.2%, 51.5%)" stroke-width="1.5"></path><path d="M-66.3 960.69L-66.3 960.69" stroke="hsl(228.5, 77.2%, 51.5%)" stroke-width="1.5"></path><path d="M-66.3 960.69L106.06 955.83" stroke="hsl(228.5, 77.2%, 51.5%)" stroke-width="1.5"></path><path d="M79.84 666.6L79.84 666.6" stroke="hsl(228.5, 77.2%, 51.5%)" stroke-width="1.5"></path><path d="M79.84 666.6L239.01 661.71" stroke="hsl(228.5, 77.2%, 51.5%)" stroke-width="1.5"></path><path d="M106.06 955.83L106.06 955.83" stroke="hsl(228.5, 77.2%, 51.5%)" stroke-width="1.5"></path><path d="M106.06 955.83L252.75 1004.17" stroke="hsl(228.5, 77.2%, 51.5%)" stroke-width="1.5"></path><path d="M106.06 955.83L-38.57 861.73" stroke="hsl(228.5, 77.2%, 51.5%)" stroke-width="1.5"></path><path d="M106.06 955.83L252.74 792.19" stroke="hsl(228.5, 77.2%, 51.5%)" stroke-width="1.5"></path><path d="M239.01 661.71L239.01 661.71" stroke="hsl(228.5, 77.2%, 51.5%)" stroke-width="1.5"></path><path d="M239.01 661.71L252.74 792.19" stroke="hsl(228.5, 77.2%, 51.5%)" stroke-width="1.5"></path><path d="M239.01 661.71L408.46 645.24" stroke="hsl(228.5, 77.2%, 51.5%)" stroke-width="1.5"></path><path d="M239.01 661.71L373.67 813.31" stroke="hsl(228.5, 77.2%, 51.5%)" stroke-width="1.5"></path><path d="M239.01 661.71L50 847.19" stroke="hsl(228.5, 77.2%, 51.5%)" stroke-width="1.5"></path><path d="M239.01 661.71L518.33 690.78" stroke="hsl(228.5, 77.2%, 51.5%)" stroke-width="1.5"></path><path d="M252.74 792.19L252.74 792.19" stroke="hsl(228.5, 77.2%, 51.5%)" stroke-width="1.5"></path><path d="M252.74 792.19L50 847.19" stroke="hsl(228.5, 77.2%, 51.5%)" stroke-width="1.5"></path><path d="M252.74 792.19L252.75 1004.17" stroke="hsl(228.5, 77.2%, 51.5%)" stroke-width="1.5"></path><path d="M252.74 792.19L79.84 666.6" stroke="hsl(228.5, 77.2%, 51.5%)" stroke-width="1.5"></path><path d="M252.74 792.19L408.46 645.24" stroke="hsl(228.5, 77.2%, 51.5%)" stroke-width="1.5"></path><path d="M252.75 1004.17L252.75 1004.17" stroke="hsl(228.5, 77.2%, 51.5%)" stroke-width="1.5"></path><path d="M408.46 645.24L408.46 645.24" stroke="hsl(228.5, 77.2%, 51.5%)" stroke-width="1.5"></path><path d="M408.46 645.24L518.33 690.78" stroke="hsl(228.5, 77.2%, 51.5%)" stroke-width="1.5"></path><path d="M408.46 645.24L541.84 851.79" stroke="hsl(228.5, 77.2%, 51.5%)" stroke-width="1.5"></path><path d="M518.33 690.78L518.33 690.78" stroke="hsl(228.5, 77.2%, 51.5%)" stroke-width="1.5"></path><path d="M518.33 690.78L541.84 851.79" stroke="hsl(228.5, 77.2%, 51.5%)" stroke-width="1.5"></path><path d="M541.84 851.79L541.84 851.79" stroke="hsl(228.5, 77.2%, 51.5%)" stroke-width="1.5"></path><path d="M541.84 851.79L672.62 835" stroke="hsl(228.5, 77.2%, 51.5%)" stroke-width="1.5"></path><path d="M541.84 851.79L549.69 989.91" stroke="hsl(228.5, 77.2%, 51.5%)" stroke-width="1.5"></path><path d="M549.69 989.91L549.69 989.91" stroke="hsl(228.5, 77.2%, 51.5%)" stroke-width="1.5"></path><path d="M549.69 989.91L672.62 835" stroke="hsl(228.5, 77.2%, 51.5%)" stroke-width="1.5"></path><path d="M549.69 989.91L373.67 813.31" stroke="hsl(228.5, 77.2%, 51.5%)" stroke-width="1.5"></path><path d="M549.69 989.91L252.75 1004.17" stroke="hsl(228.5, 77.2%, 51.5%)" stroke-width="1.5"></path><path d="M696.54 642.79L696.54 642.79" stroke="hsl(228.5, 77.2%, 51.5%)" stroke-width="1.5"></path><path d="M696.54 642.79L837.29 661.23" stroke="hsl(228.5, 77.2%, 51.5%)" stroke-width="1.5"></path><path d="M696.54 642.79L518.33 690.78" stroke="hsl(228.5, 77.2%, 51.5%)" stroke-width="1.5"></path><path d="M696.54 642.79L672.62 835" stroke="hsl(228.5, 77.2%, 51.5%)" stroke-width="1.5"></path><path d="M672.62 835L672.62 835" stroke="hsl(228.5, 77.2%, 51.5%)" stroke-width="1.5"></path><path d="M837.29 661.23L837.29 661.23" stroke="hsl(228.5, 77.2%, 51.5%)" stroke-width="1.5"></path><path d="M837.29 661.23L828.96 821.03" stroke="hsl(228.5, 77.2%, 51.5%)" stroke-width="1.5"></path><path d="M837.29 661.23L1008.54 704.97" stroke="hsl(228.5, 77.2%, 51.5%)" stroke-width="1.5"></path><path d="M837.29 661.23L1001.04 506.09" stroke="hsl(228.5, 77.2%, 51.5%)" stroke-width="1.5"></path><path d="M828.96 821.03L828.96 821.03" stroke="hsl(228.5, 77.2%, 51.5%)" stroke-width="1.5"></path><path d="M828.96 821.03L978.54 852.65" stroke="hsl(228.5, 77.2%, 51.5%)" stroke-width="1.5"></path><path d="M828.96 821.03L672.62 835" stroke="hsl(228.5, 77.2%, 51.5%)" stroke-width="1.5"></path><path d="M859.5 986.03L859.5 986.03" stroke="hsl(228.5, 77.2%, 51.5%)" stroke-width="1.5"></path><path d="M859.5 986.03L828.96 821.03" stroke="hsl(228.5, 77.2%, 51.5%)" stroke-width="1.5"></path><path d="M859.5 986.03L978.54 852.65" stroke="hsl(228.5, 77.2%, 51.5%)" stroke-width="1.5"></path><path d="M1001.04 506.09L1001.04 506.09" stroke="hsl(228.5, 77.2%, 51.5%)" stroke-width="1.5"></path><path d="M1001.04 506.09L1138.84 392.92" stroke="hsl(228.5, 77.2%, 51.5%)" stroke-width="1.5"></path><path d="M1008.54 704.97L1008.54 704.97" stroke="hsl(228.5, 77.2%, 51.5%)" stroke-width="1.5"></path><path d="M1008.54 704.97L1091.56 708.97" stroke="hsl(228.5, 77.2%, 51.5%)" stroke-width="1.5"></path><path d="M1008.54 704.97L978.54 852.65" stroke="hsl(228.5, 77.2%, 51.5%)" stroke-width="1.5"></path><path d="M1008.54 704.97L1001.04 506.09" stroke="hsl(228.5, 77.2%, 51.5%)" stroke-width="1.5"></path><path d="M1008.54 704.97L828.96 821.03" stroke="hsl(228.5, 77.2%, 51.5%)" stroke-width="1.5"></path><path d="M978.54 852.65L978.54 852.65" stroke="hsl(228.5, 77.2%, 51.5%)" stroke-width="1.5"></path><path d="M1139.35 248.92L1139.35 248.92" stroke="hsl(228.5, 77.2%, 51.5%)" stroke-width="1.5"></path><path d="M1139.35 248.92L1243.31 228.44" stroke="hsl(228.5, 77.2%, 51.5%)" stroke-width="1.5"></path><path d="M1139.35 248.92L1138.84 392.92" stroke="hsl(228.5, 77.2%, 51.5%)" stroke-width="1.5"></path><path d="M1139.35 248.92L1289.35 345.53" stroke="hsl(228.5, 77.2%, 51.5%)" stroke-width="1.5"></path><path d="M1139.35 248.92L1247.55 100.68" stroke="hsl(228.5, 77.2%, 51.5%)" stroke-width="1.5"></path><path d="M1138.84 392.92L1138.84 392.92" stroke="hsl(228.5, 77.2%, 51.5%)" stroke-width="1.5"></path><path d="M1138.84 392.92L1289.35 345.53" stroke="hsl(228.5, 77.2%, 51.5%)" stroke-width="1.5"></path><path d="M1091.56 708.97L1091.56 708.97" stroke="hsl(228.5, 77.2%, 51.5%)" stroke-width="1.5"></path><path d="M1091.56 708.97L978.54 852.65" stroke="hsl(228.5, 77.2%, 51.5%)" stroke-width="1.5"></path><path d="M1091.56 708.97L1301.54 658.24" stroke="hsl(228.5, 77.2%, 51.5%)" stroke-width="1.5"></path><path d="M1145.27 979.64L1145.27 979.64" stroke="hsl(228.5, 77.2%, 51.5%)" stroke-width="1.5"></path><path d="M1145.27 979.64L1272.94 965.64" stroke="hsl(228.5, 77.2%, 51.5%)" stroke-width="1.5"></path><path d="M1145.27 979.64L978.54 852.65" stroke="hsl(228.5, 77.2%, 51.5%)" stroke-width="1.5"></path><path d="M1145.27 979.64L1091.56 708.97" stroke="hsl(228.5, 77.2%, 51.5%)" stroke-width="1.5"></path><path d="M1145.27 979.64L859.5 986.03" stroke="hsl(228.5, 77.2%, 51.5%)" stroke-width="1.5"></path><path d="M1243.75 -42.79L1243.75 -42.79" stroke="hsl(228.5, 77.2%, 51.5%)" stroke-width="1.5"></path><path d="M1243.75 -42.79L1247.55 100.68" stroke="hsl(228.5, 77.2%, 51.5%)" stroke-width="1.5"></path><path d="M1243.75 -42.79L1411.24 -44.65" stroke="hsl(228.5, 77.2%, 51.5%)" stroke-width="1.5"></path><path d="M1243.75 -42.79L1458.63 89.49" stroke="hsl(228.5, 77.2%, 51.5%)" stroke-width="1.5"></path><path d="M1243.75 -42.79L1243.31 228.44" stroke="hsl(228.5, 77.2%, 51.5%)" stroke-width="1.5"></path><path d="M1247.55 100.68L1247.55 100.68" stroke="hsl(228.5, 77.2%, 51.5%)" stroke-width="1.5"></path><path d="M1247.55 100.68L1243.31 228.44" stroke="hsl(228.5, 77.2%, 51.5%)" stroke-width="1.5"></path><path d="M1243.31 228.44L1243.31 228.44" stroke="hsl(228.5, 77.2%, 51.5%)" stroke-width="1.5"></path><path d="M1272.94 965.64L1272.94 965.64" stroke="hsl(228.5, 77.2%, 51.5%)" stroke-width="1.5"></path><path d="M1272.94 965.64L1434.39 941.68" stroke="hsl(228.5, 77.2%, 51.5%)" stroke-width="1.5"></path><path d="M1272.94 965.64L966.87 970.96" stroke="hsl(228.5, 77.2%, 51.5%)" stroke-width="1.5"></path><path d="M1272.94 965.64L1301.54 658.24" stroke="hsl(228.5, 77.2%, 51.5%)" stroke-width="1.5"></path><path d="M1411.24 -44.65L1411.24 -44.65" stroke="hsl(228.5, 77.2%, 51.5%)" stroke-width="1.5"></path><path d="M1411.24 -44.65L1546.03 -75.25" stroke="hsl(228.5, 77.2%, 51.5%)" stroke-width="1.5"></path><path d="M1411.24 -44.65L1458.63 89.49" stroke="hsl(228.5, 77.2%, 51.5%)" stroke-width="1.5"></path><path d="M1411.24 -44.65L1247.55 100.68" stroke="hsl(228.5, 77.2%, 51.5%)" stroke-width="1.5"></path><path d="M1411.24 -44.65L1604.64 86.03" stroke="hsl(228.5, 77.2%, 51.5%)" stroke-width="1.5"></path><path d="M1458.63 89.49L1458.63 89.49" stroke="hsl(228.5, 77.2%, 51.5%)" stroke-width="1.5"></path><path d="M1458.63 89.49L1604.64 86.03" stroke="hsl(228.5, 77.2%, 51.5%)" stroke-width="1.5"></path><path d="M1458.63 89.49L1573.89 204.11" stroke="hsl(228.5, 77.2%, 51.5%)" stroke-width="1.5"></path><path d="M1458.63 89.49L1546.03 -75.25" stroke="hsl(228.5, 77.2%, 51.5%)" stroke-width="1.5"></path><path d="M1428.36 401.43L1428.36 401.43" stroke="hsl(228.5, 77.2%, 51.5%)" stroke-width="1.5"></path><path d="M1428.36 401.43L1422.67 493.79" stroke="hsl(228.5, 77.2%, 51.5%)" stroke-width="1.5"></path><path d="M1422.67 493.79L1422.67 493.79" stroke="hsl(228.5, 77.2%, 51.5%)" stroke-width="1.5"></path><path d="M1434.39 941.68L1434.39 941.68" stroke="hsl(228.5, 77.2%, 51.5%)" stroke-width="1.5"></path><path d="M1434.39 941.68L1544.67 809.89" stroke="hsl(228.5, 77.2%, 51.5%)" stroke-width="1.5"></path><path d="M1434.39 941.68L1145.27 979.64" stroke="hsl(228.5, 77.2%, 51.5%)" stroke-width="1.5"></path><path d="M1434.39 941.68L1403.84 644.15" stroke="hsl(228.5, 77.2%, 51.5%)" stroke-width="1.5"></path><path d="M1546.03 -75.25L1546.03 -75.25" stroke="hsl(228.5, 77.2%, 51.5%)" stroke-width="1.5"></path><path d="M1546.03 -75.25L1604.64 86.03" stroke="hsl(228.5, 77.2%, 51.5%)" stroke-width="1.5"></path><path d="M1604.64 86.03L1604.64 86.03" stroke="hsl(228.5, 77.2%, 51.5%)" stroke-width="1.5"></path><path d="M1604.64 86.03L1573.89 204.11" stroke="hsl(228.5, 77.2%, 51.5%)" stroke-width="1.5"></path><path d="M1573.89 204.11L1573.89 204.11" stroke="hsl(228.5, 77.2%, 51.5%)" stroke-width="1.5"></path><path d="M1573.89 204.11L1611.48 402.55" stroke="hsl(228.5, 77.2%, 51.5%)" stroke-width="1.5"></path><path d="M1573.89 204.11L1428.36 401.43" stroke="hsl(228.5, 77.2%, 51.5%)" stroke-width="1.5"></path><path d="M1611.48 402.55L1611.48 402.55" stroke="hsl(228.5, 77.2%, 51.5%)" stroke-width="1.5"></path><path d="M1611.48 402.55L1428.36 401.43" stroke="hsl(228.5, 77.2%, 51.5%)" stroke-width="1.5"></path><path d="M1599.55 654.23L1599.55 654.23" stroke="hsl(228.5, 77.2%, 51.5%)" stroke-width="1.5"></path><path d="M1599.55 654.23L1544.67 809.89" stroke="hsl(228.5, 77.2%, 51.5%)" stroke-width="1.5"></path><path d="M1599.55 654.23L1403.84 644.15" stroke="hsl(228.5, 77.2%, 51.5%)" stroke-width="1.5"></path><path d="M1599.55 654.23L1422.67 493.79" stroke="hsl(228.5, 77.2%, 51.5%)" stroke-width="1.5"></path><path d="M1599.55 654.23L1611.48 402.55" stroke="hsl(228.5, 77.2%, 51.5%)" stroke-width="1.5"></path><path d="M1599.55 654.23L1301.54 658.24" stroke="hsl(228.5, 77.2%, 51.5%)" stroke-width="1.5"></path><path d="M1544.67 809.89L1544.67 809.89" stroke="hsl(228.5, 77.2%, 51.5%)" stroke-width="1.5"></path><circle r="25" cx="50" cy="847.19" fill="url(&quot;#SvgjsRadialGradient1028&quot;)"></circle><circle r="25" cx="373.67" cy="813.31" fill="url(&quot;#SvgjsRadialGradient1028&quot;)"></circle><circle r="25" cx="391.09" cy="986.63" fill="url(&quot;#SvgjsRadialGradient1028&quot;)"></circle><circle r="25" cx="677.42" cy="957.51" fill="url(&quot;#SvgjsRadialGradient1028&quot;)"></circle><circle r="25" cx="961.68" cy="408.63" fill="url(&quot;#SvgjsRadialGradient1028&quot;)"></circle><circle r="25" cx="966.87" cy="970.96" fill="url(&quot;#SvgjsRadialGradient1028&quot;)"></circle><circle r="25" cx="1158.43" cy="494.93" fill="url(&quot;#SvgjsRadialGradient1028&quot;)"></circle><circle r="25" cx="1121.6" cy="849.35" fill="url(&quot;#SvgjsRadialGradient1028&quot;)"></circle><circle r="25" cx="1289.35" cy="345.53" fill="url(&quot;#SvgjsRadialGradient1028&quot;)"></circle><circle r="25" cx="1239.02" cy="545.48" fill="url(&quot;#SvgjsRadialGradient1028&quot;)"></circle><circle r="25" cx="1301.54" cy="658.24" fill="url(&quot;#SvgjsRadialGradient1028&quot;)"></circle><circle r="25" cx="1435.3" cy="206.27" fill="url(&quot;#SvgjsRadialGradient1028&quot;)"></circle><circle r="25" cx="1403.84" cy="644.15" fill="url(&quot;#SvgjsRadialGradient1028&quot;)"></circle><circle r="25" cx="1577.04" cy="561.38" fill="url(&quot;#SvgjsRadialGradient1028&quot;)"></circle><circle r="25" cx="1568.01" cy="971.57" fill="url(&quot;#SvgjsRadialGradient1028&quot;)"></circle><circle r="5" cx="-81.86" cy="700.12" fill="#8b9ad9"></circle><circle r="5" cx="-38.57" cy="861.73" fill="#8b9ad9"></circle><circle r="5" cx="-66.3" cy="960.69" fill="#8b9ad9"></circle><circle r="5" cx="79.84" cy="666.6" fill="#8b9ad9"></circle><circle r="5" cx="106.06" cy="955.83" fill="#8b9ad9"></circle><circle r="5" cx="239.01" cy="661.71" fill="#8b9ad9"></circle><circle r="5" cx="252.74" cy="792.19" fill="#8b9ad9"></circle><circle r="5" cx="252.75" cy="1004.17" fill="#8b9ad9"></circle><circle r="5" cx="408.46" cy="645.24" fill="#8b9ad9"></circle><circle r="5" cx="518.33" cy="690.78" fill="#8b9ad9"></circle><circle r="5" cx="541.84" cy="851.79" fill="#8b9ad9"></circle><circle r="5" cx="549.69" cy="989.91" fill="#8b9ad9"></circle><circle r="5" cx="696.54" cy="642.79" fill="#8b9ad9"></circle><circle r="5" cx="672.62" cy="835" fill="#8b9ad9"></circle><circle r="5" cx="837.29" cy="661.23" fill="#8b9ad9"></circle><circle r="5" cx="828.96" cy="821.03" fill="#8b9ad9"></circle><circle r="5" cx="859.5" cy="986.03" fill="#8b9ad9"></circle><circle r="5" cx="1001.04" cy="506.09" fill="#8b9ad9"></circle><circle r="5" cx="1008.54" cy="704.97" fill="#8b9ad9"></circle><circle r="5" cx="978.54" cy="852.65" fill="#8b9ad9"></circle><circle r="5" cx="1139.35" cy="248.92" fill="#8b9ad9"></circle><circle r="5" cx="1138.84" cy="392.92" fill="#8b9ad9"></circle><circle r="5" cx="1091.56" cy="708.97" fill="#8b9ad9"></circle><circle r="5" cx="1145.27" cy="979.64" fill="#8b9ad9"></circle><circle r="5" cx="1243.75" cy="-42.79" fill="#8b9ad9"></circle><circle r="5" cx="1247.55" cy="100.68" fill="#8b9ad9"></circle><circle r="5" cx="1243.31" cy="228.44" fill="#8b9ad9"></circle><circle r="5" cx="1272.94" cy="965.64" fill="#8b9ad9"></circle><circle r="5" cx="1411.24" cy="-44.65" fill="#8b9ad9"></circle><circle r="5" cx="1458.63" cy="89.49" fill="#8b9ad9"></circle><circle r="5" cx="1428.36" cy="401.43" fill="#8b9ad9"></circle><circle r="5" cx="1422.67" cy="493.79" fill="#8b9ad9"></circle><circle r="5" cx="1434.39" cy="941.68" fill="#8b9ad9"></circle><circle r="5" cx="1546.03" cy="-75.25" fill="#8b9ad9"></circle><circle r="5" cx="1604.64" cy="86.03" fill="#8b9ad9"></circle><circle r="5" cx="1573.89" cy="204.11" fill="#8b9ad9"></circle><circle r="5" cx="1611.48" cy="402.55" fill="#8b9ad9"></circle><circle r="5" cx="1599.55" cy="654.23" fill="#8b9ad9"></circle><circle r="5" cx="1544.67" cy="809.89" fill="#8b9ad9"></circle></g><defs><mask id="SvgjsMask1026"><rect width="1440" height="800" fill="#ffffff"></rect></mask><linearGradient x1="11.11%" y1="-20%" x2="88.89%" y2="120%" gradientUnits="userSpaceOnUse" id="SvgjsLinearGradient1027"><stop stop-color="#0e2a47" offset="0"></stop><stop stop-color="#00459e" offset="1"></stop></linearGradient><radialGradient id="SvgjsRadialGradient1028"><stop stop-color="#ffffff" offset="0.1"></stop><stop stop-color="#1735b3" offset="0.2"></stop><stop stop-color="rgba(23, 53, 179, 0)" offset="1"></stop></radialGradient></defs></svg>